{"title":"Blood Money 2012 KORSUB HDRip XViD UNiQUE","uid":7568877,"size":1402696448,"categoryP":"video","categoryS":"movies","magnet":"?xt=urn:btih:c53a7489156f94d0344fa857367e949a40945502&amp;dn=Blood+Money+2012+KORSUB+HDRip+XViD+UNiQUE&amp;tr=udp%3A%2F%2Ftracker.openbittorrent.com%3A80&amp;tr=udp%3A%2F%2Fopen.demonii.com%3A1337&amp;tr=udp%3A%2F%2Ftracker.coppersurfer.tk%3A6969&amp;tr=udp%3A%2F%2Fexodus.desync.com%3A6969","seeders":0,"leechers":0,"uploader":"HeroMaster","files":-1,"time":1345934295,"description":"Blood Money 2012 KORSUB HDRip XViD UNiQUE\n\n\n[[.........why be the same as everyone else when YOU can be UNiQUE.........]]             \n\n\nFormat                                   : AVI\nFormat/Info                              : Audio Video Interleave\nFormat profile                           : OpenDML\nFile size                                : 1.29 GiB\nDuration                                 : 1h 46mn\nOverall bit rate                         : 1 733 Kbps\nWriting application                      : Lavf52.57.1\n\nVideo\nID                                       : 0\nFormat                                   : xvid\nCodec ID                                 : xvid\nDuration                                 : 1h 46mn\nBit rate                                 : 1 399 Kbps\nWidth                                    : 720 pixels\nHeight                                   : 400 pixels\nDisplay aspect ratio                     : 16:9\nFrame rate                               : 29.970 fps\nBits/(Pixel*Frame)                       : 0.162\nStream size                              : 1.04 GiB (81%)\n\nAudio\nID                                       : 1\nFormat                                   : AC-3\nFormat/Info                              : Audio Coding 3\nMode extension                           : CM (complete main)\nFormat settings, Endianness              : Big\nCodec ID                                 : 2000\nDuration                                 : 1h 46mn\nBit rate mode                            : Constant\nBit rate                                 : 320 Kbps\nChannel(s)                               : 2 channels\nChannel positions                        : Front: L R\nSampling rate                            : 48.0 KHz\nBit depth                                : 16 bits\nCompression mode                         : Lossy\nStream size                              : 245 MiB (18%)\nAlignment                                : Aligned on interleaves\nInterleave, duration                     : 32 ms (0.96 video frame)\nInterleave, preload duration             : 32 ms\n\n &lt;a href=&quot;\nhttp://www.imdb.com/title/tt1753521/&quot; rel=&quot;nofollow&quot; target=&quot;_NEW&quot;&gt;\nhttp://www.imdb.com/title/tt1753521/&lt;/a&gt;\n\n\nStoryline:\n\n\nZheng Zhou is the most feared warrior from the Shaolin Dynasty in China. His fighting and weapons skills are legendary. But when his parents are killed and sister kidnapped, he turns to a life of drugs and crime that will almost kill him. With the help of Hong Kong's notorious Dragon Triad syndicate, Colombia's biggest drugs cartel hatches an elaborate plan to traffic two tonnes of crack cocaine through the Port of Miami in America and ultimately into Australia and China. But when the partnership turns sour after the Cartel holds a Triad family member hostage, the Triads recruit Zhou to rescue the girl and kill the Colombians. What ensues is a bloodied street war across three countries. Zhou turns international Hitman with an arsenal of hi-tech surveillance devices, explosives, high powered weaponry and an array of fighting skills dating back fifteen hundred years. But just as Zhou rescues the hostage and takes control of the entire drugs shipment...\n\n\nSource Used:\n\n\nBlood Money.2012.KORSUB.HDRip.x264.AC3-ADiOS...........Thanks \n\nNo subs available i could find for the foreign dialect so either take it or \nleave it but most seems to be english after skipping through.\n\n\nPoster:\n\n &lt;a href=&quot;\nhttp://i.imgur.com/K1jeh.jpg&quot; rel=&quot;nofollow&quot; target=&quot;_NEW&quot;&gt;\nhttp://i.imgur.com/K1jeh.jpg&lt;/a&gt;\n\n\nScreenshots:\n\n &lt;a href=&quot;\nhttp://i.imgur.com/SMIU8.png&quot; rel=&quot;nofollow&quot; target=&quot;_NEW&quot;&gt;\nhttp://i.imgur.com/SMIU8.png&lt;/a&gt;\n\n &lt;a href=&quot;\nhttp://i.imgur.com/dygzp.png&quot; rel=&quot;nofollow&quot; target=&quot;_NEW&quot;&gt;\nhttp://i.imgur.com/dygzp.png&lt;/a&gt;\n\n &lt;a href=&quot;\nhttp://i.imgur.com/wKXtT.png&quot; rel=&quot;nofollow&quot; target=&quot;_NEW&quot;&gt;\nhttp://i.imgur.com/wKXtT.png&lt;/a&gt;\n\n\nENJOY!","torrent":{"xt":"urn:btih:c53a7489156f94d0344fa857367e949a40945502","amp;dn":"Blood+Money+2012+KORSUB+HDRip+XViD+UNiQUE","amp;tr":["udp%3A%2F%2Ftracker.openbittorrent.com%3A80","udp%3A%2F%2Fopen.demonii.com%3A1337","udp%3A%2F%2Ftracker.coppersurfer.tk%3A6969","udp%3A%2F%2Fexodus.desync.com%3A6969"],"infoHash":"c53a7489156f94d0344fa857367e949a40945502","infoHashBuffer":{"type":"Buffer","data":[197,58,116,137,21,111,148,208,52,79,168,87,54,126,148,154,64,148,85,2]},"announce":[],"urlList":[]}}